<svg width="190" height="23" viewBox="0 0 190 23" fill="none" xmlns="http://www.w3.org/2000/svg">
<path d="M45.5331 16.5156V18H36.2264V16.7012L40.8846 11.5156C41.4576 10.8776 41.9003 10.3372 42.2128 9.89453C42.5318 9.44531 42.7531 9.04492 42.8768 8.69336C43.007 8.33529 43.0721 7.9707 43.0721 7.59961C43.0721 7.13086 42.9745 6.70768 42.7792 6.33008C42.5904 5.94596 42.3104 5.63997 41.9393 5.41211C41.5682 5.18424 41.119 5.07031 40.5917 5.07031C39.9602 5.07031 39.4328 5.19401 39.0096 5.44141C38.593 5.68229 38.2805 6.02083 38.0721 6.45703C37.8638 6.89323 37.7596 7.39453 37.7596 7.96094H35.953C35.953 7.16016 36.1288 6.42773 36.4803 5.76367C36.8319 5.09961 37.3527 4.57227 38.0428 4.18164C38.733 3.78451 39.5826 3.58594 40.5917 3.58594C41.4901 3.58594 42.2583 3.74544 42.8964 4.06445C43.5344 4.37695 44.0227 4.81966 44.3612 5.39258C44.7063 5.95898 44.8788 6.62305 44.8788 7.38477C44.8788 7.80143 44.8072 8.22461 44.6639 8.6543C44.5272 9.07747 44.3352 9.50065 44.0878 9.92383C43.8469 10.347 43.5637 10.7637 43.2382 11.1738C42.9191 11.584 42.5774 11.9876 42.2128 12.3848L38.4042 16.5156H45.5331ZM56.3925 9.75781V11.9258C56.3925 13.0911 56.2883 14.0742 56.08 14.875C55.8716 15.6758 55.5721 16.3203 55.1815 16.8086C54.7909 17.2969 54.3189 17.6517 53.7655 17.873C53.2186 18.0879 52.6001 18.1953 51.91 18.1953C51.3632 18.1953 50.8586 18.127 50.3964 17.9902C49.9341 17.8535 49.5175 17.6354 49.1464 17.3359C48.7818 17.0299 48.4693 16.6328 48.2089 16.1445C47.9484 15.6562 47.7499 15.0638 47.6132 14.3672C47.4764 13.6706 47.4081 12.8568 47.4081 11.9258V9.75781C47.4081 8.59245 47.5122 7.61589 47.7206 6.82812C47.9354 6.04036 48.2382 5.40885 48.6288 4.93359C49.0194 4.45182 49.4882 4.10677 50.035 3.89844C50.5884 3.6901 51.2069 3.58594 51.8905 3.58594C52.4439 3.58594 52.9517 3.6543 53.4139 3.79102C53.8827 3.92122 54.2994 4.13281 54.6639 4.42578C55.0285 4.71224 55.3378 5.09635 55.5917 5.57812C55.8521 6.05339 56.0507 6.63607 56.1874 7.32617C56.3241 8.01628 56.3925 8.82682 56.3925 9.75781ZM54.576 12.2188V9.45508C54.576 8.81706 54.537 8.25716 54.4589 7.77539C54.3872 7.28711 54.2798 6.87044 54.1366 6.52539C53.9934 6.18034 53.8111 5.90039 53.5897 5.68555C53.3749 5.4707 53.1242 5.31445 52.8378 5.2168C52.5578 5.11263 52.2421 5.06055 51.8905 5.06055C51.4608 5.06055 51.08 5.14193 50.7479 5.30469C50.4159 5.46094 50.1359 5.71159 49.9081 6.05664C49.6867 6.40169 49.5175 6.85417 49.4003 7.41406C49.2831 7.97396 49.2245 8.6543 49.2245 9.45508V12.2188C49.2245 12.8568 49.2603 13.4199 49.3319 13.9082C49.41 14.3965 49.524 14.8197 49.6737 15.1777C49.8234 15.5293 50.0057 15.819 50.2206 16.0469C50.4354 16.2747 50.6828 16.444 50.9628 16.5547C51.2492 16.6589 51.565 16.7109 51.91 16.7109C52.3527 16.7109 52.7401 16.6263 53.0721 16.457C53.4042 16.2878 53.6809 16.0241 53.9022 15.666C54.1301 15.3014 54.2994 14.8359 54.41 14.2695C54.5207 13.6966 54.576 13.013 54.576 12.2188ZM68.0331 16.5156V18H58.7264V16.7012L63.3846 11.5156C63.9576 10.8776 64.4003 10.3372 64.7128 9.89453C65.0318 9.44531 65.2531 9.04492 65.3768 8.69336C65.507 8.33529 65.5721 7.9707 65.5721 7.59961C65.5721 7.13086 65.4745 6.70768 65.2792 6.33008C65.0904 5.94596 64.8104 5.63997 64.4393 5.41211C64.0682 5.18424 63.619 5.07031 63.0917 5.07031C62.4602 5.07031 61.9328 5.19401 61.5096 5.44141C61.093 5.68229 60.7805 6.02083 60.5721 6.45703C60.3638 6.89323 60.2596 7.39453 60.2596 7.96094H58.453C58.453 7.16016 58.6288 6.42773 58.9803 5.76367C59.3319 5.09961 59.8527 4.57227 60.5428 4.18164C61.233 3.78451 62.0826 3.58594 63.0917 3.58594C63.9901 3.58594 64.7583 3.74544 65.3964 4.06445C66.0344 4.37695 66.5227 4.81966 66.8612 5.39258C67.2063 5.95898 67.3788 6.62305 67.3788 7.38477C67.3788 7.80143 67.3072 8.22461 67.1639 8.6543C67.0272 9.07747 66.8352 9.50065 66.5878 9.92383C66.3469 10.347 66.0637 10.7637 65.7382 11.1738C65.4191 11.584 65.0774 11.9876 64.7128 12.3848L60.9042 16.5156H68.0331ZM79.576 13.2148V14.6992H69.3026V13.6348L75.6698 3.78125H77.1444L75.5624 6.63281L71.3534 13.2148H79.576ZM77.5936 3.78125V18H75.787V3.78125H77.5936ZM97.1542 10.9199V16.125C96.9784 16.3854 96.6984 16.6784 96.3143 17.0039C95.9302 17.3229 95.3996 17.6029 94.7225 17.8438C94.052 18.0781 93.1861 18.1953 92.1249 18.1953C91.259 18.1953 90.4615 18.0456 89.7323 17.7461C89.0096 17.4401 88.3814 16.9974 87.8475 16.418C87.3202 15.832 86.91 15.1224 86.6171 14.2891C86.3306 13.4492 86.1874 12.4987 86.1874 11.4375V10.334C86.1874 9.27279 86.3111 8.32552 86.5585 7.49219C86.8124 6.65885 87.1835 5.95247 87.6718 5.37305C88.16 4.78711 88.759 4.3444 89.4686 4.04492C90.1783 3.73893 90.9921 3.58594 91.91 3.58594C92.9973 3.58594 93.9055 3.77474 94.6346 4.15234C95.3703 4.52344 95.9432 5.03776 96.3534 5.69531C96.7701 6.35286 97.037 7.10156 97.1542 7.94141H95.2694C95.1848 7.42708 95.0155 6.95833 94.7616 6.53516C94.5142 6.11198 94.1594 5.77344 93.6971 5.51953C93.2349 5.25911 92.6392 5.12891 91.91 5.12891C91.2525 5.12891 90.6828 5.24935 90.201 5.49023C89.7193 5.73112 89.3221 6.07617 89.0096 6.52539C88.6971 6.97461 88.4628 7.51823 88.3065 8.15625C88.1568 8.79427 88.0819 9.51367 88.0819 10.3145V11.4375C88.0819 12.2578 88.1763 12.9902 88.3651 13.6348C88.5604 14.2793 88.8371 14.8294 89.1952 15.2852C89.5533 15.7344 89.9797 16.0762 90.4745 16.3105C90.9758 16.5449 91.5292 16.6621 92.1346 16.6621C92.8052 16.6621 93.3488 16.6068 93.7655 16.4961C94.1822 16.3789 94.5077 16.2422 94.7421 16.0859C94.9764 15.9232 95.1555 15.7702 95.2792 15.627V12.4434H91.9882V10.9199H97.1542ZM99.5272 12.834V12.6094C99.5272 11.8477 99.6379 11.1413 99.8593 10.4902C100.081 9.83268 100.4 9.26302 100.816 8.78125C101.233 8.29297 101.738 7.91536 102.33 7.64844C102.922 7.375 103.586 7.23828 104.322 7.23828C105.064 7.23828 105.732 7.375 106.324 7.64844C106.923 7.91536 107.431 8.29297 107.848 8.78125C108.271 9.26302 108.593 9.83268 108.814 10.4902C109.036 11.1413 109.146 11.8477 109.146 12.6094V12.834C109.146 13.5957 109.036 14.3021 108.814 14.9531C108.593 15.6042 108.271 16.1738 107.848 16.6621C107.431 17.1439 106.926 17.5215 106.334 17.7949C105.748 18.0618 105.084 18.1953 104.342 18.1953C103.599 18.1953 102.932 18.0618 102.34 17.7949C101.747 17.5215 101.239 17.1439 100.816 16.6621C100.4 16.1738 100.081 15.6042 99.8593 14.9531C99.6379 14.3021 99.5272 13.5957 99.5272 12.834ZM101.334 12.6094V12.834C101.334 13.3613 101.396 13.8594 101.519 14.3281C101.643 14.7904 101.829 15.2005 102.076 15.5586C102.33 15.9167 102.646 16.1999 103.023 16.4082C103.401 16.61 103.84 16.7109 104.342 16.7109C104.836 16.7109 105.269 16.61 105.641 16.4082C106.018 16.1999 106.331 15.9167 106.578 15.5586C106.825 15.2005 107.011 14.7904 107.135 14.3281C107.265 13.8594 107.33 13.3613 107.33 12.834V12.6094C107.33 12.0885 107.265 11.597 107.135 11.1348C107.011 10.666 106.822 10.2526 106.568 9.89453C106.321 9.52995 106.008 9.24349 105.631 9.03516C105.26 8.82682 104.823 8.72266 104.322 8.72266C103.827 8.72266 103.391 8.82682 103.014 9.03516C102.642 9.24349 102.33 9.52995 102.076 9.89453C101.829 10.2526 101.643 10.666 101.519 11.1348C101.396 11.597 101.334 12.0885 101.334 12.6094ZM110.933 12.834V12.6094C110.933 11.8477 111.044 11.1413 111.266 10.4902C111.487 9.83268 111.806 9.26302 112.223 8.78125C112.639 8.29297 113.144 7.91536 113.736 7.64844C114.329 7.375 114.993 7.23828 115.728 7.23828C116.471 7.23828 117.138 7.375 117.73 7.64844C118.329 7.91536 118.837 8.29297 119.254 8.78125C119.677 9.26302 119.999 9.83268 120.221 10.4902C120.442 11.1413 120.553 11.8477 120.553 12.6094V12.834C120.553 13.5957 120.442 14.3021 120.221 14.9531C119.999 15.6042 119.677 16.1738 119.254 16.6621C118.837 17.1439 118.333 17.5215 117.74 17.7949C117.154 18.0618 116.49 18.1953 115.748 18.1953C115.006 18.1953 114.338 18.0618 113.746 17.7949C113.154 17.5215 112.646 17.1439 112.223 16.6621C111.806 16.1738 111.487 15.6042 111.266 14.9531C111.044 14.3021 110.933 13.5957 110.933 12.834ZM112.74 12.6094V12.834C112.74 13.3613 112.802 13.8594 112.926 14.3281C113.049 14.7904 113.235 15.2005 113.482 15.5586C113.736 15.9167 114.052 16.1999 114.43 16.4082C114.807 16.61 115.247 16.7109 115.748 16.7109C116.243 16.7109 116.676 16.61 117.047 16.4082C117.424 16.1999 117.737 15.9167 117.984 15.5586C118.232 15.2005 118.417 14.7904 118.541 14.3281C118.671 13.8594 118.736 13.3613 118.736 12.834V12.6094C118.736 12.0885 118.671 11.597 118.541 11.1348C118.417 10.666 118.228 10.2526 117.974 9.89453C117.727 9.52995 117.415 9.24349 117.037 9.03516C116.666 8.82682 116.23 8.72266 115.728 8.72266C115.234 8.72266 114.797 8.82682 114.42 9.03516C114.049 9.24349 113.736 9.52995 113.482 9.89453C113.235 10.2526 113.049 10.666 112.926 11.1348C112.802 11.597 112.74 12.0885 112.74 12.6094ZM129.664 7.43359H131.305V17.7754C131.305 18.7064 131.116 19.5007 130.738 20.1582C130.361 20.8158 129.833 21.3138 129.156 21.6523C128.486 21.9974 127.711 22.1699 126.832 22.1699C126.467 22.1699 126.038 22.1113 125.543 21.9941C125.055 21.8835 124.573 21.6914 124.098 21.418C123.629 21.151 123.235 20.7897 122.916 20.334L123.863 19.2598C124.306 19.7936 124.768 20.1647 125.25 20.373C125.738 20.5814 126.22 20.6855 126.695 20.6855C127.268 20.6855 127.763 20.5781 128.18 20.3633C128.596 20.1484 128.918 19.8294 129.146 19.4062C129.381 18.9896 129.498 18.4753 129.498 17.8633V9.75781L129.664 7.43359ZM122.389 12.834V12.6289C122.389 11.8216 122.483 11.0892 122.672 10.4316C122.867 9.76758 123.144 9.19792 123.502 8.72266C123.866 8.2474 124.306 7.88281 124.82 7.62891C125.335 7.36849 125.914 7.23828 126.558 7.23828C127.223 7.23828 127.802 7.35547 128.297 7.58984C128.798 7.81771 129.221 8.15299 129.566 8.5957C129.918 9.0319 130.195 9.55924 130.396 10.1777C130.598 10.7962 130.738 11.4961 130.816 12.2773V13.1758C130.745 13.9505 130.605 14.6471 130.396 15.2656C130.195 15.8841 129.918 16.4115 129.566 16.8477C129.221 17.2839 128.798 17.6191 128.297 17.8535C127.795 18.0814 127.21 18.1953 126.539 18.1953C125.907 18.1953 125.335 18.0618 124.82 17.7949C124.312 17.528 123.876 17.1536 123.512 16.6719C123.147 16.1901 122.867 15.6237 122.672 14.9727C122.483 14.3151 122.389 13.6022 122.389 12.834ZM124.195 12.6289V12.834C124.195 13.3613 124.247 13.8561 124.351 14.3184C124.462 14.7806 124.628 15.1875 124.849 15.5391C125.077 15.8906 125.367 16.1673 125.719 16.3691C126.07 16.5645 126.49 16.6621 126.978 16.6621C127.577 16.6621 128.072 16.5352 128.463 16.2812C128.853 16.0273 129.163 15.6921 129.391 15.2754C129.625 14.8587 129.807 14.4062 129.937 13.918V11.5645C129.866 11.2064 129.755 10.8613 129.605 10.5293C129.462 10.1908 129.273 9.89128 129.039 9.63086C128.811 9.36393 128.528 9.15234 128.189 8.99609C127.851 8.83984 127.454 8.76172 126.998 8.76172C126.503 8.76172 126.077 8.86589 125.719 9.07422C125.367 9.27604 125.077 9.55599 124.849 9.91406C124.628 10.2656 124.462 10.6758 124.351 11.1445C124.247 11.6068 124.195 12.1016 124.195 12.6289ZM136.012 3V18H134.195V3H136.012ZM143.297 18.1953C142.561 18.1953 141.894 18.0716 141.295 17.8242C140.702 17.5703 140.191 17.2155 139.762 16.7598C139.338 16.304 139.013 15.7637 138.785 15.1387C138.557 14.5137 138.443 13.8301 138.443 13.0879V12.6777C138.443 11.8184 138.57 11.0534 138.824 10.3828C139.078 9.70573 139.423 9.13281 139.859 8.66406C140.295 8.19531 140.79 7.84049 141.344 7.59961C141.897 7.35872 142.47 7.23828 143.062 7.23828C143.818 7.23828 144.469 7.36849 145.016 7.62891C145.569 7.88932 146.021 8.25391 146.373 8.72266C146.724 9.1849 146.985 9.73177 147.154 10.3633C147.323 10.9883 147.408 11.6719 147.408 12.4141V13.2246H139.517V11.75H145.601V11.6133C145.575 11.1445 145.478 10.6888 145.308 10.2461C145.146 9.80339 144.885 9.4388 144.527 9.15234C144.169 8.86589 143.681 8.72266 143.062 8.72266C142.652 8.72266 142.275 8.81055 141.93 8.98633C141.585 9.1556 141.288 9.40951 141.041 9.74805C140.793 10.0866 140.601 10.5 140.465 10.9883C140.328 11.4766 140.26 12.0397 140.26 12.6777V13.0879C140.26 13.5892 140.328 14.0612 140.465 14.5039C140.608 14.9401 140.813 15.3242 141.08 15.6562C141.353 15.9883 141.682 16.2487 142.066 16.4375C142.457 16.6263 142.9 16.7207 143.394 16.7207C144.032 16.7207 144.573 16.5905 145.016 16.3301C145.458 16.0697 145.846 15.7214 146.178 15.2852L147.271 16.1543C147.043 16.4993 146.754 16.8281 146.402 17.1406C146.051 17.4531 145.618 17.707 145.103 17.9023C144.596 18.0977 143.993 18.1953 143.297 18.1953ZM163.375 16.4668V18H156.266V16.4668H163.375ZM156.637 3.78125V18H154.752V3.78125H156.637ZM174.156 16.4668V18H167.047V16.4668H174.156ZM167.418 3.78125V18H165.533V3.78125H167.418ZM184.254 13.4785H186.129C186.031 14.377 185.774 15.181 185.357 15.8906C184.941 16.6003 184.351 17.1634 183.59 17.5801C182.828 17.9902 181.877 18.1953 180.738 18.1953C179.905 18.1953 179.146 18.0391 178.463 17.7266C177.786 17.4141 177.203 16.9714 176.715 16.3984C176.226 15.819 175.849 15.1257 175.582 14.3184C175.321 13.5046 175.191 12.5996 175.191 11.6035V10.1875C175.191 9.19141 175.321 8.28971 175.582 7.48242C175.849 6.66862 176.23 5.97201 176.724 5.39258C177.226 4.81315 177.828 4.36719 178.531 4.05469C179.234 3.74219 180.025 3.58594 180.904 3.58594C181.978 3.58594 182.887 3.78776 183.629 4.19141C184.371 4.59505 184.947 5.15495 185.357 5.87109C185.774 6.58073 186.031 7.4043 186.129 8.3418H184.254C184.163 7.67773 183.993 7.10807 183.746 6.63281C183.499 6.15104 183.147 5.77995 182.691 5.51953C182.236 5.25911 181.64 5.12891 180.904 5.12891C180.273 5.12891 179.716 5.24935 179.234 5.49023C178.759 5.73112 178.359 6.07292 178.033 6.51562C177.714 6.95833 177.473 7.48893 177.31 8.10742C177.148 8.72591 177.066 9.41276 177.066 10.168V11.6035C177.066 12.3001 177.138 12.9544 177.281 13.5664C177.431 14.1784 177.655 14.7155 177.955 15.1777C178.254 15.64 178.635 16.0046 179.098 16.2715C179.56 16.5319 180.107 16.6621 180.738 16.6621C181.539 16.6621 182.177 16.5352 182.652 16.2812C183.127 16.0273 183.486 15.6628 183.726 15.1875C183.974 14.7122 184.15 14.1426 184.254 13.4785Z" fill="#C4C4C4"/>
<g clip-path="url(#clip0_693_769)">
<path d="M1.57208 6.99984C1.57208 3.77809 5.09119 1.1665 9.4325 1.1665C13.7738 1.1665 17.2929 3.77809 17.2929 6.99984C17.2929 10.2216 13.7738 12.8332 9.4325 12.8332C5.09119 12.8332 1.57208 10.2216 1.57208 6.99984Z" stroke="#C4C4C4" stroke-width="1.875"/>
<path d="M11.0046 9.13892C10.5767 9.26782 10.1191 9.3338 9.65731 9.33317C7.79675 9.33317 6.28833 8.289 6.28833 6.99984C6.28833 5.71067 7.79675 4.6665 9.65731 4.6665C10.1368 4.6665 10.5919 4.73592 11.0046 4.86075" stroke="#C4C4C4" stroke-width="1.875" stroke-linecap="round"/>
</g>
<defs>
<clipPath id="clip0_693_769">
<rect width="18.865" height="14" fill="white"/>
</clipPath>
</defs>
</svg>
