<svg width="16" height="20" viewBox="0 0 16 20" fill="none" xmlns="http://www.w3.org/2000/svg">
<path d="M6.00001 12.6502V7.35024L11 10.0002L6.00001 12.6502ZM13.77 8.32024C13 8.00024 12.57 7.82023 12.57 7.82023L14 7.06024C15.84 6.10024 16.53 3.83024 15.56 2.00024C14.59 0.170235 12.32 -0.529765 10.49 0.440235L2.00001 4.94024C0.710014 5.62023 -0.0699859 6.98024 1.40686e-05 8.43024C0.0700141 9.85024 0.930014 11.1002 2.22001 11.6802C2.25001 11.6902 3.42001 12.1802 3.42001 12.1802L2.00001 12.9302C0.170014 13.9002 -0.529986 16.1702 0.440014 18.0002C1.41001 19.8302 3.68001 20.5302 5.51001 19.5602L14.01 15.0602C15.3 14.3802 16.07 13.0202 16 11.5702C15.93 10.1502 15.06 8.89023 13.77 8.32024ZM13.54 14.1802L5.04001 18.6802C3.70001 19.3902 2.03001 18.8802 1.32001 17.5402C0.610014 16.2002 1.12001 14.5302 2.46001 13.8202L4.50001 12.7402V11.5302L3.81001 11.2502L2.70001 10.7902C1.71001 10.3802 1.05001 9.44024 1.00001 8.38024C0.950014 7.32024 1.52001 6.32024 2.46001 5.82024L10.96 1.32024C12.3 0.610235 13.97 1.12024 14.68 2.46024C15.39 3.80024 14.88 5.47024 13.54 6.18024L11.5 7.26024V8.47024L13.3 9.21024C14.29 9.62024 14.95 10.5602 15 11.6202C15.05 12.6802 14.48 13.6802 13.54 14.1802Z" fill="#1B1919"/>
</svg>
