<svg width="21" height="21" viewBox="0 0 21 21" fill="none" xmlns="http://www.w3.org/2000/svg">
<path fill-rule="evenodd" clip-rule="evenodd" d="M9.56893 0.681641C9.06685 0.681641 8.65984 1.02604 8.65984 1.45087L8.65984 5.55344C8.65984 5.5533 8.65984 5.55357 8.65984 5.55344L8.65984 12.9991C7.76139 12.3533 6.59772 11.9637 5.3265 11.9637C2.4814 11.9637 0.174988 13.9153 0.174988 16.3227C0.174988 18.7301 2.4814 20.6816 5.3265 20.6816C8.17161 20.6816 10.478 18.7301 10.478 16.3227C10.478 16.2008 10.4721 16.0801 10.4605 15.9608C10.472 15.912 10.478 15.8615 10.478 15.8098L10.478 6.32267L16.8417 6.32267C18.6826 6.32267 20.175 5.05988 20.175 3.50215C20.175 1.94443 18.6826 0.681641 16.8417 0.681641L9.56893 0.681641ZM10.478 4.7842L16.8417 4.7842C17.6785 4.7842 18.3568 4.21021 18.3568 3.50215C18.3568 2.7941 17.6785 2.2201 16.8417 2.2201L10.478 2.2201L10.478 4.7842ZM5.3265 13.5022C3.48555 13.5022 1.99317 14.7649 1.99317 16.3227C1.99317 17.8804 3.48555 19.1432 5.3265 19.1432C7.16745 19.1432 8.65984 17.8804 8.65984 16.3227C8.65984 14.7649 7.16745 13.5022 5.3265 13.5022Z" fill="black"/>
</svg>
