<svg width="20" height="21" viewBox="0 0 20 21" fill="none" xmlns="http://www.w3.org/2000/svg">
<path d="M12.984 15.1883L8.02395 12.1083V5.23828H10.02V10.9983L14.0419 13.4883L12.984 15.1883ZM20 10.2383C20 15.7483 15.519 20.2383 10.02 20.2383C4.52096 20.2383 0.0399201 15.7483 0.0399201 10.2383H1.03792C1.03792 15.1983 5.06986 19.2383 10.02 19.2383C14.9701 19.2383 19.002 15.1983 19.002 10.2383C19.002 5.27828 14.9701 1.23828 10.02 1.23828C6.83633 1.23828 3.9521 2.87828 2.31537 5.61828C2.20559 5.79828 2.09581 5.98828 2.00599 6.17828C1.99601 6.19828 1.98603 6.21828 1.97605 6.23828H6.02794V7.23828H0V1.23828H0.998004V5.97828C1.03792 5.88828 1.06786 5.80828 1.10778 5.72828C1.21756 5.50828 1.33733 5.30828 1.45709 5.09828C3.25349 2.09828 6.53693 0.238281 10.02 0.238281C15.519 0.238281 20 4.72828 20 10.2383Z" fill="black"/>
</svg>
